<svg width="295" height="300" viewBox="0 0 295 300" fill="none" xmlns="http://www.w3.org/2000/svg">
<rect width="295" height="300" rx="22" fill="#9B9B9B"/>
<path fill-rule="evenodd" clip-rule="evenodd" d="M188.923 120.353C188.923 130.837 184.606 140.891 176.921 148.304C169.236 155.718 158.813 159.882 147.945 159.882C137.077 159.882 126.654 155.718 118.969 148.304C111.284 140.891 106.967 130.837 106.967 120.353C106.967 109.87 111.284 99.8152 118.969 92.4021C126.654 84.989 137.077 80.8244 147.945 80.8244C158.813 80.8244 169.236 84.989 176.921 92.4021C184.606 99.8152 188.923 109.87 188.923 120.353ZM168.434 120.353C168.434 125.595 166.276 130.622 162.433 134.329C158.591 138.035 153.379 140.118 147.945 140.118C142.511 140.118 137.3 138.035 133.457 134.329C129.615 130.622 127.456 125.595 127.456 120.353C127.456 115.111 129.615 110.084 133.457 106.378C137.3 102.671 142.511 100.589 147.945 100.589C153.379 100.589 158.591 102.671 162.433 106.378C166.276 110.084 168.434 115.111 168.434 120.353Z" fill="white"/>
<path fill-rule="evenodd" clip-rule="evenodd" d="M147.945 41.2956C85.7096 41.2956 35.2551 89.9655 35.2551 150C35.2551 210.035 85.7096 258.704 147.945 258.704C210.181 258.704 260.636 210.035 260.636 150C260.636 89.9655 210.181 41.2956 147.945 41.2956ZM55.7443 150C55.7443 170.654 63.0486 189.667 75.2909 204.767C83.8885 193.876 94.98 185.05 107.699 178.978C120.418 172.906 134.42 169.753 148.611 169.764C162.619 169.752 176.445 172.823 189.036 178.745C201.626 184.667 212.65 193.283 221.266 203.937C230.142 192.707 236.119 179.599 238.701 165.699C241.283 151.798 240.397 137.504 236.115 124C231.834 110.495 224.28 98.1682 214.079 88.0388C203.878 77.9095 191.324 70.2689 177.454 65.7492C163.584 61.2296 148.798 59.9608 134.319 62.048C119.84 64.1351 106.084 69.5181 94.1898 77.7516C82.2956 85.9851 72.6049 96.8324 65.9195 109.396C59.2341 121.959 55.7461 135.878 55.7443 150ZM147.945 238.94C126.78 238.971 106.253 231.947 89.8382 219.057C96.4452 209.933 105.239 202.484 115.472 197.343C125.705 192.202 137.074 189.521 148.611 189.529C160.005 189.52 171.236 192.134 181.373 197.152C191.509 202.171 200.258 209.45 206.893 218.385C190.351 231.693 169.485 238.969 147.945 238.94Z" fill="white"/>
</svg>
